<?xml version="1.0" encoding="utf-8"?>
<!-- Generator: Adobe Illustrator 27.5.0, SVG Export Plug-In . SVG Version: 6.00 Build 0)  -->
<svg version="1.1" xmlns="http://www.w3.org/2000/svg" xmlns:xlink="http://www.w3.org/1999/xlink" x="0px" y="0px"
	 viewBox="0 0 1080 1080" style="enable-background:new 0 0 1080 1080;" xml:space="preserve">
<style type="text/css">
	.st0{display:none;}
	.st1{display:inline;fill:#1D1C1A;}
	.st2{display:inline;}
	.st3{fill:#1D1C1A;}
</style>
<g id="Layer_5">
</g>
<g id="Layer_1">
</g>
<g id="Layer_2" class="st0">
	<path class="st1" d="M225.6,535.1H93.8v-132h131.8V535.1z M97.8,531.1h123.8V407.2H97.8V531.1z"/>
	<g class="st2">
		<g>
			<path class="st3" d="M293,601.4h-13.3v-13.3H293V601.4z M281,600.2h10.8v-10.8H281V600.2z"/>
			<path class="st3" d="M293.7,602.1h-14.6v-14.6h14.6V602.1z M280.4,600.8h12.1v-12.1v12.1H280.4z M281.6,599.6h9.5V590h-9.5V599.6
				z"/>
		</g>
	</g>
	<g class="st2">
		<g>
			<path class="st3" d="M293,475.2h-13.3v-13.3H293V475.2z M281,473.9h10.8v-10.8H281V473.9z"/>
			<path class="st3" d="M293.7,475.8h-14.6v-14.6h14.6V475.8z M280.4,474.5h12.1v-12.1v12.1H280.4z M281.6,473.3h9.5v-9.5h-9.5
				V473.3z"/>
		</g>
	</g>
	<g class="st2">
		<g>
			<path class="st3" d="M166.2,475.2h-13.3v-13.3h13.3V475.2z M154.1,473.9h10.8v-10.8h-10.8V473.9z"/>
			<path class="st3" d="M166.8,475.8h-14.6v-14.6h14.6V475.8z M153.5,474.5h12.1v-12.1v12.1H153.5z M154.8,473.3h9.5v-9.5h-9.5
				V473.3z"/>
		</g>
	</g>
	<g class="st2">
		<g>
			<path class="st3" d="M166.2,601.4h-13.3v-13.3h13.3V601.4z M154.1,600.2h10.8v-10.8h-10.8V600.2z"/>
			<path class="st3" d="M166.8,602.1h-14.6v-14.6h14.6V602.1z M153.5,600.8h12.1v-12.1v12.1H153.5z M154.8,599.6h9.5V590h-9.5V599.6
				z"/>
		</g>
	</g>
	<g class="st2">
		<rect x="269" y="593" class="st3" width="8.4" height="3.6"/>
		<rect x="254.7" y="593" class="st3" width="8.4" height="3.6"/>
		<rect x="240.3" y="593" class="st3" width="8.4" height="3.6"/>
		<rect x="225.9" y="593" class="st3" width="8.4" height="3.6"/>
		<rect x="211.6" y="593" class="st3" width="8.4" height="3.6"/>
		<rect x="197.2" y="593" class="st3" width="8.4" height="3.6"/>
		<rect x="182.9" y="593" class="st3" width="8.4" height="3.6"/>
		<rect x="168.5" y="593" class="st3" width="8.4" height="3.6"/>
	</g>
	<g class="st2">
		<rect x="284.6" y="477.5" class="st3" width="3.6" height="8.3"/>
		<rect x="284.6" y="491.8" class="st3" width="3.6" height="8.3"/>
		<rect x="284.6" y="506.1" class="st3" width="3.6" height="8.3"/>
		<rect x="284.6" y="520.3" class="st3" width="3.6" height="8.3"/>
		<rect x="284.6" y="534.6" class="st3" width="3.6" height="8.3"/>
		<rect x="284.6" y="548.9" class="st3" width="3.6" height="8.3"/>
		<rect x="284.6" y="563.2" class="st3" width="3.6" height="8.3"/>
		<rect x="284.6" y="577.5" class="st3" width="3.6" height="8.3"/>
	</g>
	<g class="st2">
		<rect x="157.7" y="477.5" class="st3" width="3.6" height="8.3"/>
		<rect x="157.7" y="491.8" class="st3" width="3.6" height="8.3"/>
		<rect x="157.7" y="506" class="st3" width="3.6" height="8.3"/>
		<rect x="157.7" y="520.3" class="st3" width="3.6" height="8.3"/>
		<rect x="157.7" y="534.6" class="st3" width="3.6" height="8.3"/>
		<rect x="157.7" y="548.9" class="st3" width="3.6" height="8.3"/>
		<rect x="157.7" y="563.2" class="st3" width="3.6" height="8.3"/>
		<rect x="157.7" y="577.5" class="st3" width="3.6" height="8.3"/>
	</g>
	<rect x="269" y="466.7" class="st1" width="8.4" height="3.6"/>
	<rect x="254.7" y="466.7" class="st1" width="8.4" height="3.6"/>
	<rect x="240.3" y="466.7" class="st1" width="8.4" height="3.6"/>
	<rect x="225.4" y="466.7" class="st1" width="9" height="3.6"/>
	<rect x="211.6" y="466.7" class="st1" width="8.4" height="3.6"/>
	<rect x="197.2" y="466.7" class="st1" width="8.4" height="3.6"/>
	<rect x="182.9" y="466.7" class="st1" width="8.4" height="3.6"/>
	<rect x="168.5" y="466.7" class="st1" width="8.4" height="3.6"/>
</g>
<g id="Layer_4">
	<path class="st3" d="M23.4,23.5v685h684.3v-685H23.4z M59.1,672.9V59.1h613.1v613.7H59.1z"/>
</g>
<g id="Layer_3">
	<g>
		<path class="st3" d="M969.1,1053.2h89.1v-89.1h-89.1V1053.2z M997.1,1025.2V992h33.2v33.2H997.1z"/>
		<path class="st3" d="M969.1,323.2v89.1h89.1v-89.1H969.1z M997.1,384.4v-33.2h33.2v33.2H997.1z"/>
		<path class="st3" d="M328.3,412.4h89.1v-89.1h-89.1V412.4z M356.2,384.4v-33.2h33.2v33.2H356.2z"/>
		<path class="st3" d="M328.3,964.1v89.1h89.1v-89.1H328.3z M389.4,1025.2h-33.2V992h33.2V1025.2z"/>
		<g>
			<rect x="996.9" y="431.7" class="st3" width="33.3" height="55.5"/>
			<rect x="996.9" y="506.6" class="st3" width="33.3" height="57.9"/>
			<rect x="996.9" y="583.8" class="st3" width="33.3" height="57.9"/>
			<rect x="996.9" y="661" class="st3" width="33.3" height="57.9"/>
			<rect x="996.9" y="738.3" class="st3" width="33.3" height="57.9"/>
			<rect x="996.9" y="815.5" class="st3" width="33.3" height="57.9"/>
			<rect x="996.9" y="892.7" class="st3" width="33.3" height="52"/>
		</g>
		<g>
			<rect x="356.2" y="431.7" class="st3" width="33.3" height="55.5"/>
			<rect x="356.2" y="506.6" class="st3" width="33.3" height="57.9"/>
			<rect x="356.2" y="583.8" class="st3" width="33.3" height="57.9"/>
			<rect x="356.2" y="661" class="st3" width="33.3" height="57.9"/>
			<rect x="356.2" y="738.3" class="st3" width="33.3" height="57.9"/>
			<rect x="356.2" y="815.5" class="st3" width="33.3" height="57.9"/>
			<rect x="356.2" y="892.7" class="st3" width="33.3" height="52"/>
		</g>
		<g>
			<rect x="436.8" y="990.1" class="st3" width="55.5" height="33.3"/>
			<rect x="511.7" y="990.1" class="st3" width="57.9" height="33.3"/>
			<rect x="588.9" y="990.1" class="st3" width="57.9" height="33.3"/>
			<rect x="666.1" y="990.1" class="st3" width="57.9" height="33.3"/>
			<rect x="743.3" y="990.1" class="st3" width="57.9" height="33.3"/>
			<rect x="820.5" y="990.1" class="st3" width="57.9" height="33.3"/>
			<rect x="897.8" y="990.1" class="st3" width="52" height="33.3"/>
		</g>
		<g>
			<rect x="437" y="351" class="st3" width="55.5" height="33.3"/>
			<rect x="511.8" y="351" class="st3" width="57.9" height="33.3"/>
			<rect x="589" y="351" class="st3" width="57.9" height="33.3"/>
			<rect x="666.2" y="351" class="st3" width="57.9" height="33.3"/>
			<rect x="743.5" y="351" class="st3" width="57.9" height="33.3"/>
			<rect x="820.7" y="351" class="st3" width="57.9" height="33.3"/>
			<rect x="897.9" y="351" class="st3" width="52" height="33.3"/>
		</g>
	</g>
</g>
</svg>
