<?xml version="1.0" encoding="utf-8"?>
<!-- Generator: Adobe Illustrator 27.5.0, SVG Export Plug-In . SVG Version: 6.00 Build 0)  -->
<svg version="1.1" xmlns="http://www.w3.org/2000/svg" xmlns:xlink="http://www.w3.org/1999/xlink" x="0px" y="0px"
	 viewBox="0 0 925.9 298.5" style="enable-background:new 0 0 925.9 298.5;" xml:space="preserve">
<style type="text/css">
	.st0{fill:#1D1C1A;}
	.st1{display:none;}
	.st2{display:inline;fill:#1D1C1A;}
	.st3{display:inline;}
</style>
<g id="Layer_5">
</g>
<g id="Layer_1">
	<g>
		<path class="st0" d="M326.2,80.3h-67.4v142.5h25.8v-58.5h41.6c11.5,0,21.5-4.1,29.7-12.3c8.2-8.2,12.4-18.2,12.4-29.8
			c0-11.5-4.2-21.5-12.4-29.6C347.7,84.4,337.7,80.3,326.2,80.3z M337.6,133.7c-3.2,3.2-7,4.7-11.4,4.7h-41.6v-32.3h41.6
			c4.5,0,8.2,1.5,11.4,4.7c3.2,3.2,4.8,6.9,4.8,11.4C342.4,126.7,340.8,130.5,337.6,133.7z"/>
		<path class="st0" d="M447,108.4c-2.9-0.4-5.2-0.6-7.1-0.6c-10.5,0-20.2,2.6-29,7.8c-8.7,5.2-15.7,12.2-20.9,20.9
			c-5.2,8.7-7.8,18.5-7.8,29v57.3h25.8v-57.3c0-8.7,3.1-16.2,9.3-22.4c6.2-6.2,13.7-9.3,22.4-9.3c0.7,0,1.7,0.1,3,0.3
			c1.2,0.2,2.4,0.5,3.4,0.9l1.4,0.6l9.1-24.3l-1.4-0.5C452.7,109.5,449.9,108.8,447,108.4z"/>
		<rect x="470.6" y="135.5" class="st0" width="25.8" height="87.2"/>
		<polygon class="st0" points="470.6,116.8 496.4,116.8 496.4,90 470.6,103 		"/>
		<path class="st0" d="M618.5,107.8c-12.4,0-23.1,4.4-31.7,13.2c-8.7-8.7-19.4-13.2-31.7-13.2c-12.3,0-22.9,4.4-31.5,13.1
			c-8.7,8.7-13.1,19.3-13.1,31.5v70.3h25.8v-70.3c0-5.2,1.8-9.6,5.5-13.3c3.7-3.7,8-5.5,13.3-5.5s9.6,1.8,13.3,5.5
			c3.7,3.7,5.5,8,5.5,13.3v70.3h25.8v-70.3c0-5.2,1.8-9.6,5.5-13.3c3.7-3.7,8-5.5,13.3-5.5c5.2,0,9.5,1.8,13.1,5.5
			c3.7,3.7,5.5,8,5.5,13.3v70.3H663v-70.3c0-12.3-4.4-22.9-13.1-31.5C641.2,112.2,630.7,107.8,618.5,107.8z"/>
		<path class="st0" d="M756.1,152.2h-43.8c-2.6,0-4.7-0.9-6.6-2.7c-1.9-1.8-2.8-4-2.8-6.6c0-2.6,0.9-4.8,2.8-6.6
			c1.9-1.8,4-2.7,6.6-2.7h74.6v-25.8h-74.6c-9.6,0-18,3.5-24.8,10.3c-6.9,6.8-10.4,15.2-10.4,24.9c0,9.7,3.5,18.1,10.4,24.9
			c6.9,6.8,15.2,10.3,24.8,10.3h43.8c2.7,0,4.9,0.9,6.7,2.8s2.8,4.1,2.8,6.7c0,2.6-0.9,4.7-2.8,6.6s-4.1,2.8-6.7,2.8h-74.4v25.8
			h74.4c9.7,0,18.1-3.5,25-10.4c6.9-6.9,10.4-15.2,10.4-24.8c0-9.7-3.5-18.1-10.4-25C774.2,155.7,765.8,152.2,756.1,152.2z"/>
		<path class="st0" d="M884.8,107.7v89.8h-21.6c-8.7,0-16.2-3.1-22.4-9.3c-6.2-6.2-9.3-13.8-9.3-22.6v-58h-25.8v58
			c0,10.6,2.6,20.4,7.8,29.1c5.1,8.7,12.2,15.7,20.9,20.9c8.7,5.2,18.5,7.8,29,7.8h21.6v2.4c0,8.8-3.1,16.4-9.3,22.6
			c-6.2,6.2-13.7,9.3-22.5,9.3h-1.5v25.8h1.5c10.6,0,20.4-2.6,29-7.8c8.6-5.2,15.6-12.2,20.8-20.9c5.2-8.7,7.8-18.5,7.8-29.1v-118
			H884.8z"/>
	</g>
	<g>
		<path class="st0" d="M694.2,244.3h5.3v40h-5.3V244.3z"/>
		<path class="st0" d="M726.1,255c3.4,0,6,1.1,8.1,3.2c2,2.1,3,5,3,8.6v17.5h-5v-17.3c0-2.3-0.6-4.1-1.9-5.4c-1.3-1.3-3-1.9-5.2-1.9
			c-2.5,0-4.5,0.8-6,2.3c-1.5,1.5-2.3,3.9-2.3,7.1v15.1h-5v-28.6h5v4.1C718.9,256.6,722,255,726.1,255z"/>
		<path class="st0" d="M772.1,244.3h5v40h-5v-4.9c-2.5,3.8-6.1,5.7-10.8,5.7c-4,0-7.4-1.5-10.2-4.4c-2.8-2.9-4.2-6.5-4.2-10.7
			c0-4.2,1.4-7.7,4.2-10.7c2.8-2.9,6.2-4.4,10.2-4.4c4.7,0,8.3,1.9,10.8,5.7V244.3z M761.9,280.3c2.9,0,5.3-1,7.3-2.9
			c1.9-2,2.9-4.4,2.9-7.3c0-2.9-1-5.3-2.9-7.3c-1.9-2-4.4-2.9-7.3-2.9c-2.9,0-5.3,1-7.2,2.9c-1.9,2-2.9,4.4-2.9,7.3
			c0,2.9,1,5.3,2.9,7.3C756.7,279.3,759.1,280.3,761.9,280.3z"/>
		<path class="st0" d="M791.4,250.6c-1,0-1.8-0.3-2.4-1c-0.6-0.6-1-1.4-1-2.3s0.3-1.7,1-2.4c0.6-0.7,1.4-1,2.4-1
			c0.9,0,1.7,0.3,2.3,1c0.6,0.7,1,1.5,1,2.4s-0.3,1.7-1,2.3C793.1,250.2,792.3,250.6,791.4,250.6z M788.9,284.3v-28.6h5v28.6H788.9z
			"/>
		<path class="st0" d="M829.4,255.8h5v28.6h-5v-4.9c-2.5,3.8-6.1,5.7-10.8,5.7c-4,0-7.4-1.5-10.2-4.4c-2.8-2.9-4.2-6.5-4.2-10.7
			c0-4.2,1.4-7.7,4.2-10.7c2.8-2.9,6.2-4.4,10.2-4.4c4.7,0,8.3,1.9,10.8,5.7V255.8z M819.2,280.3c2.9,0,5.3-1,7.3-2.9
			c1.9-2,2.9-4.4,2.9-7.3c0-2.9-1-5.3-2.9-7.3c-1.9-2-4.4-2.9-7.3-2.9c-2.9,0-5.3,1-7.2,2.9c-1.9,2-2.9,4.4-2.9,7.3
			c0,2.9,1,5.3,2.9,7.3C814,279.3,816.4,280.3,819.2,280.3z"/>
	</g>
</g>
<g id="Layer_2" class="st1">
	<path class="st2" d="M146.7,155.4H14.9v-132h131.8V155.4z M18.9,151.4h123.8V27.5H18.9V151.4z"/>
	<g class="st3">
		<g>
			<path class="st0" d="M214.2,221.7h-13.3v-13.3h13.3V221.7z M202.1,220.5h10.8v-10.8h-10.8V220.5z"/>
			<path class="st0" d="M214.8,222.3h-14.6v-14.6h14.6V222.3z M201.5,221.1h12.1V209v12.1H201.5z M202.7,219.8h9.5v-9.5h-9.5V219.8z
				"/>
		</g>
	</g>
	<g class="st3">
		<g>
			<path class="st0" d="M214.2,95.5h-13.3V82.1h13.3V95.5z M202.1,94.2h10.8V83.4h-10.8V94.2z"/>
			<path class="st0" d="M214.8,96.1h-14.6V81.5h14.6V96.1z M201.5,94.8h12.1V82.8v12.1H201.5z M202.7,93.6h9.5V84h-9.5V93.6z"/>
		</g>
	</g>
	<g class="st3">
		<g>
			<path class="st0" d="M87.3,95.5H74V82.1h13.3V95.5z M75.3,94.2h10.8V83.4H75.3V94.2z"/>
			<path class="st0" d="M87.9,96.1H73.4V81.5h14.6V96.1z M74.6,94.8h12.1V82.8v12.1H74.6z M75.9,93.6h9.5V84h-9.5V93.6z"/>
		</g>
	</g>
	<g class="st3">
		<g>
			<path class="st0" d="M87.3,221.7H74v-13.3h13.3V221.7z M75.3,220.5h10.8v-10.8H75.3V220.5z"/>
			<path class="st0" d="M87.9,222.3H73.4v-14.6h14.6V222.3z M74.6,221.1h12.1V209v12.1H74.6z M75.9,219.8h9.5v-9.5h-9.5V219.8z"/>
		</g>
	</g>
	<g class="st3">
		<rect x="190.2" y="213.3" class="st0" width="8.4" height="3.6"/>
		<rect x="175.8" y="213.3" class="st0" width="8.4" height="3.6"/>
		<rect x="161.4" y="213.3" class="st0" width="8.4" height="3.6"/>
		<rect x="147.1" y="213.3" class="st0" width="8.4" height="3.6"/>
		<rect x="132.7" y="213.3" class="st0" width="8.4" height="3.6"/>
		<rect x="118.3" y="213.3" class="st0" width="8.4" height="3.6"/>
		<rect x="104" y="213.3" class="st0" width="8.4" height="3.6"/>
		<rect x="89.6" y="213.3" class="st0" width="8.4" height="3.6"/>
	</g>
	<g class="st3">
		<rect x="205.7" y="97.8" class="st0" width="3.6" height="8.3"/>
		<rect x="205.7" y="112" class="st0" width="3.6" height="8.3"/>
		<rect x="205.7" y="126.3" class="st0" width="3.6" height="8.3"/>
		<rect x="205.7" y="140.6" class="st0" width="3.6" height="8.3"/>
		<rect x="205.7" y="154.9" class="st0" width="3.6" height="8.3"/>
		<rect x="205.7" y="169.2" class="st0" width="3.6" height="8.3"/>
		<rect x="205.7" y="183.5" class="st0" width="3.6" height="8.3"/>
		<rect x="205.7" y="197.8" class="st0" width="3.6" height="8.3"/>
	</g>
	<g class="st3">
		<rect x="78.9" y="97.8" class="st0" width="3.6" height="8.3"/>
		<rect x="78.9" y="112" class="st0" width="3.6" height="8.3"/>
		<rect x="78.9" y="126.3" class="st0" width="3.6" height="8.3"/>
		<rect x="78.9" y="140.6" class="st0" width="3.6" height="8.3"/>
		<rect x="78.9" y="154.9" class="st0" width="3.6" height="8.3"/>
		<rect x="78.9" y="169.2" class="st0" width="3.6" height="8.3"/>
		<rect x="78.9" y="183.5" class="st0" width="3.6" height="8.3"/>
		<rect x="78.9" y="197.7" class="st0" width="3.6" height="8.3"/>
	</g>
	<rect x="190.1" y="87" class="st2" width="8.4" height="3.6"/>
	<rect x="175.8" y="87" class="st2" width="8.4" height="3.6"/>
	<rect x="161.4" y="87" class="st2" width="8.4" height="3.6"/>
	<rect x="146.5" y="87" class="st2" width="9" height="3.6"/>
	<rect x="132.7" y="87" class="st2" width="8.4" height="3.6"/>
	<rect x="118.3" y="87" class="st2" width="8.4" height="3.6"/>
	<rect x="104" y="87" class="st2" width="8.4" height="3.6"/>
	<rect x="89.6" y="87" class="st2" width="8.4" height="3.6"/>
</g>
<g id="Layer_4">
	<path class="st0" d="M12.4,21v135h134.8V21H12.4z M19.4,148.9V28h120.8v120.9H19.4z"/>
</g>
<g id="Layer_3">
	<g>
		<path class="st0" d="M198.7,223.8h17.6v-17.6h-17.6V223.8z M204.2,218.3v-6.5h6.5v6.5H204.2z"/>
		<path class="st0" d="M198.7,80v17.6h17.6V80H198.7z M204.2,92.1v-6.5h6.5v6.5H204.2z"/>
		<path class="st0" d="M72.5,97.6H90V80H72.5V97.6z M78,92.1v-6.5h6.5v6.5H78z"/>
		<path class="st0" d="M72.5,206.3v17.6H90v-17.6H72.5z M84.5,218.3H78v-6.5h6.5V218.3z"/>
		<g>
			<rect x="204.2" y="101.4" class="st0" width="6.6" height="10.9"/>
			<rect x="204.2" y="116.2" class="st0" width="6.6" height="11.4"/>
			<rect x="204.2" y="131.4" class="st0" width="6.6" height="11.4"/>
			<rect x="204.2" y="146.6" class="st0" width="6.6" height="11.4"/>
			<rect x="204.2" y="161.8" class="st0" width="6.6" height="11.4"/>
			<rect x="204.2" y="177" class="st0" width="6.6" height="11.4"/>
			<rect x="204.2" y="192.2" class="st0" width="6.6" height="10.2"/>
		</g>
		<g>
			<rect x="78" y="101.4" class="st0" width="6.6" height="10.9"/>
			<rect x="78" y="116.2" class="st0" width="6.6" height="11.4"/>
			<rect x="78" y="131.4" class="st0" width="6.6" height="11.4"/>
			<rect x="78" y="146.6" class="st0" width="6.6" height="11.4"/>
			<rect x="78" y="161.8" class="st0" width="6.6" height="11.4"/>
			<rect x="78" y="177" class="st0" width="6.6" height="11.4"/>
			<rect x="78" y="192.2" class="st0" width="6.6" height="10.2"/>
		</g>
		<g>
			<rect x="93.8" y="211.4" class="st0" width="10.9" height="6.6"/>
			<rect x="108.6" y="211.4" class="st0" width="11.4" height="6.6"/>
			<rect x="123.8" y="211.4" class="st0" width="11.4" height="6.6"/>
			<rect x="139" y="211.4" class="st0" width="11.4" height="6.6"/>
			<rect x="154.2" y="211.4" class="st0" width="11.4" height="6.6"/>
			<rect x="169.4" y="211.4" class="st0" width="11.4" height="6.6"/>
			<rect x="184.7" y="211.4" class="st0" width="10.2" height="6.6"/>
		</g>
		<g>
			<rect x="93.9" y="85.5" class="st0" width="10.9" height="6.6"/>
			<rect x="108.6" y="85.5" class="st0" width="11.4" height="6.6"/>
			<rect x="123.8" y="85.5" class="st0" width="11.4" height="6.6"/>
			<rect x="139" y="85.5" class="st0" width="11.4" height="6.6"/>
			<rect x="154.3" y="85.5" class="st0" width="11.4" height="6.6"/>
			<rect x="169.5" y="85.5" class="st0" width="11.4" height="6.6"/>
			<rect x="184.7" y="85.5" class="st0" width="10.2" height="6.6"/>
		</g>
	</g>
</g>
</svg>
