<?xml version="1.0" encoding="utf-8"?>
<!-- Generator: Adobe Illustrator 28.2.0, SVG Export Plug-In . SVG Version: 6.00 Build 0)  -->
<svg version="1.1" id="Layer_1" xmlns="http://www.w3.org/2000/svg" xmlns:xlink="http://www.w3.org/1999/xlink" x="0px" y="0px"
	 viewBox="0 0 2000 2000" style="enable-background:new 0 0 2000 2000;" xml:space="preserve">
<style type="text/css">
	.st0{fill-rule:evenodd;clip-rule:evenodd;fill:#FFFFFF;}
</style>
<g id="OBJECTS">
</g>
<g id="DESIGNED_BY_FREEPIK">
	<g>
		<path class="st0" d="M1978.16,974.84c0,526.22-429.95,952.92-960.33,952.92c-168.43,0-326.68-43.01-464.24-118.57L21.84,1978.16
			l173.32-511.25C107.7,1323.28,57.41,1154.85,57.41,974.84c0-526.33,429.95-953,960.41-953
			C1548.2,21.84,1978.16,448.51,1978.16,974.84L1978.16,974.84z M1017.82,173.62c-445.33,0-807.47,359.36-807.47,801.22
			c0,175.23,57.09,337.63,153.79,469.76l-100.83,297.5l310.24-98.58c127.46,83.63,280.19,132.46,444.27,132.46
			c445.14,0,807.39-359.39,807.39-801.14C1825.21,532.98,1462.97,173.62,1017.82,173.62L1017.82,173.62z M1502.77,1194.33
			c-5.95-9.75-21.66-15.6-45.1-27.28c-23.56-11.66-139.36-68.23-160.91-75.97c-21.55-7.77-37.36-11.68-52.96,11.66
			c-15.7,23.37-60.84,76-74.61,91.59c-13.69,15.62-27.39,17.53-50.95,5.84c-23.59-11.66-99.47-36.41-189.36-115.88
			c-69.94-62.01-117.19-138.41-130.99-161.78c-13.67-23.34-1.36-35.97,10.3-47.63c10.62-10.52,23.58-27.28,35.35-40.86
			c11.79-13.69,15.71-23.48,23.56-39.07c7.85-15.6,3.94-29.18-2.01-40.87c-5.84-11.66-52.96-126.62-72.6-173.43
			c-19.51-46.68-39.15-44.94-52.96-44.94c-13.69,0-39.1,4.07-39.1,4.07s-47.19,5.84-68.74,29.21
			c-21.55,23.34-82.36,79.91-82.36,194.76c0,114.93,84.29,226.06,96.05,241.55c11.79,15.62,162.81,259.18,402.16,352.71
			c239.35,93.5,239.35,62.3,282.53,58.36c43.09-3.8,139.25-56.46,158.89-111.02C1508.61,1250.79,1508.61,1204,1502.77,1194.33
			L1502.77,1194.33z"/>
	</g>
</g>
</svg>
